<?xml version="1.0" encoding="UTF-8"?><svg id="Livello_1" xmlns="http://www.w3.org/2000/svg" viewBox="0 0 13.69 13.69"><defs><style>.cls-1{fill:#8b914b;}</style></defs><path class="cls-1" d="m4.99,12.73c-1.17,0-2.22-.4-3.01-1.15-.09-.09-.09-.23,0-.32s.23-.09.32,0c.8.76,1.9,1.11,3.12,1.01,1.43-.13,2.74-.84,3.57-1.96.07-.1.22-.12.32-.05.1.07.12.22.05.32-.91,1.22-2.33,2-3.89,2.14-.15.01-.31.02-.46.02Z"/><path class="cls-1" d="m4.53,10.66c-.07,0-.13-.03-.18-.09-1.2-1.54-1.11-3.88-.34-5.25.33-.59.79-1.13,1.23-1.65.54-.63,1.09-1.29,1.39-2.01.07-.17.35-.17.42,0,.3.72.86,1.37,1.39,2.01.44.52.9,1.06,1.23,1.65.78,1.37.86,3.71-.34,5.25-.08.1-.22.12-.32.04-.1-.08-.12-.22-.04-.32,1.07-1.37.99-3.53.3-4.75-.31-.55-.75-1.07-1.18-1.58-.45-.54-.92-1.09-1.25-1.7-.34.61-.8,1.16-1.25,1.7-.43.51-.87,1.03-1.18,1.58-.69,1.22-.77,3.38.3,4.75.08.1.06.24-.04.32-.04.03-.09.05-.14.05Z"/><path class="cls-1" d="m6.84,12.37c-.13,0-.23-.1-.23-.23V1.75c0-.13.1-.23.23-.23s.23.1.23.23v10.39c0,.12-.1.23-.23.23Z"/><path class="cls-1" d="m6.84,8.76c-.13,0-.23-.1-.23-.23,0-.63.81-1.1,1.6-1.55.65-.37,1.38-.79,1.23-1.1-.05-.11,0-.25.11-.3.11-.05.25,0,.3.11.33.69-.55,1.2-1.41,1.69-.61.35-1.37.78-1.37,1.16,0,.13-.1.23-.23.23Z"/><path class="cls-1" d="m6.84,6.42c-.13,0-.23-.1-.23-.23,0-.51.59-.83,1.17-1.13.29-.16.73-.39.76-.53,0-.01-.02-.04-.03-.05-.08-.1-.06-.24.04-.32.1-.08.24-.06.32.04.13.17.14.32.12.43-.07.34-.5.57-.99.84-.39.21-.93.5-.93.73,0,.13-.1.23-.23.23Z"/><path class="cls-1" d="m6.84,11c-.13,0-.23-.1-.23-.23,0-.69.81-1.21,1.67-1.76.7-.45,1.49-.95,1.5-1.42,0-.12.1-.22.23-.22h0c.12,0,.22.11.22.23-.02.71-.88,1.26-1.71,1.79-.69.44-1.46.94-1.46,1.38,0,.12-.1.23-.23.23Z"/><path class="cls-1" d="m6.84,8.76c-.13,0-.23-.1-.23-.23,0-.37-.76-.81-1.37-1.16-.86-.49-1.75-1-1.41-1.69.05-.11.19-.16.3-.11.11.05.16.19.11.3-.15.31.58.73,1.23,1.1.79.45,1.6.91,1.6,1.55,0,.13-.1.23-.23.23Z"/><path class="cls-1" d="m6.84,6.42c-.13,0-.23-.1-.23-.23,0-.24-.54-.52-.93-.73-.49-.26-.92-.49-.99-.84-.02-.1-.02-.26.12-.43.08-.1.22-.11.32-.04.1.08.11.22.04.32,0,.01-.03.04-.03.05.03.14.47.37.76.53.58.31,1.17.63,1.17,1.13,0,.13-.1.23-.23.23Z"/><path class="cls-1" d="m6.84,11c-.13,0-.23-.1-.23-.23,0-.45-.78-.94-1.46-1.38-.83-.53-1.69-1.08-1.71-1.79,0-.12.09-.23.22-.23.12,0,.23.09.23.22.01.47.81.98,1.5,1.42.86.55,1.67,1.07,1.67,1.76,0,.12-.1.23-.23.23Z"/><path class="cls-1" d="m6.84,13.69c-3.77,0-6.84-3.07-6.84-6.84S3.07,0,6.84,0s6.84,3.07,6.84,6.84-3.07,6.84-6.84,6.84ZM6.84.57C3.38.57.57,3.38.57,6.84s2.82,6.28,6.28,6.28,6.28-2.82,6.28-6.28S10.31.57,6.84.57Z"/></svg>